<svg xmlns="http://www.w3.org/2000/svg" width="1024" height="1024" viewBox="0 0 1024 1024">
  <rect x="0" y="0" width="1024" height="1024" rx="229" ry="229" fill="#0B0B0D"/>
  <g transform="translate(32.5,32) scale(4.0)">
    <g transform="translate(0.000000,240.000000) scale(0.100000,-0.100000)" fill="#F5F5F5" stroke="none">
      <path d="M1635 2126 c-129 -32 -205 -113 -176 -189 9 -23 7 -26 -23 -31 -140
-26 -399 -231 -574 -456 -230 -294 -513 -775 -632 -1076 -34 -85 -36 -102 -14
-111 23 -8 38 13 69 97 122 329 511 958 745 1204 212 223 462 350 507 256 54
-114 -197 -482 -399 -586 -63 -32 -78 -31 -78 6 0 95 146 315 252 380 56 34
62 20 26 -55 -22 -46 -41 -57 -52 -30 -20 54 -137 -80 -122 -140 24 -95 205
56 251 209 13 41 12 45 -9 65 -63 60 -189 -23 -307 -202 -145 -219 -122 -363
47 -292 33 14 35 13 29 -4 -10 -33 14 -65 85 -114 38 -26 73 -47 77 -47 8 0
53 -79 53 -93 0 -3 -34 -11 -75 -18 -59 -9 -76 -16 -81 -31 -10 -34 8 -40 79
-28 55 10 83 9 163 -4 104 -18 129 -13 108 22 -9 13 -8 21 2 30 33 30 -4 59
-61 47 -14 -3 -36 -7 -50 -10 -21 -5 -27 0 -40 31 -20 50 -67 96 -143 145 -52
33 -63 44 -59 61 3 11 -1 27 -9 35 -13 13 -10 18 19 41 197 158 357 402 357
544 0 43 0 43 88 43 98 0 169 30 195 83 50 101 -147 187 -253 112 -68 -49 -42
-112 55 -133 11 -3 2 -5 -20 -5 -146 -3 -209 104 -95 163 83 43 265 50 381 15
84 -24 182 -85 187 -115 8 -46 62 -54 62 -9 0 63 -135 157 -271 189 -76 18
-224 18 -294 1z m201 -179 c-1 -25 -42 -56 -81 -61 -16 -2 -23 -1 -15 2 16 5
60 49 60 59 0 4 -7 14 -16 24 -15 17 -14 17 19 7 25 -8 34 -16 33 -31z m-173
18 c-3 -9 -8 -14 -10 -11 -3 3 -2 9 2 15 9 16 15 13 8 -4z m-413 -521 c-18
-21 -24 -10 -8 15 7 12 14 17 16 11 2 -6 -2 -17 -8 -26z"/>
    </g>
  </g>
</svg>
